<?xml version="1.0" standalone="no"?><!DOCTYPE svg PUBLIC "-//W3C//DTD SVG 1.1//EN" "http://www.w3.org/Graphics/SVG/1.1/DTD/svg11.dtd"><svg t="1665476287117" class="icon" viewBox="0 0 1024 1024" version="1.1" xmlns="http://www.w3.org/2000/svg" p-id="2351" xmlns:xlink="http://www.w3.org/1999/xlink" width="200" height="200"><path d="M864 140.8c-12.8 0-32 12.8-32 32V896c0 32-19.2 64-51.2 64H262.4c-38.4 0-70.4-32-70.4-64v-64c0-32 32-64 64-64h499.2c12.8 0 12.8-6.4 12.8-19.2V128C768 64 736 0 665.6 0H262.4C198.4 0 128 57.6 128 128v787.2c6.4 57.6 64 102.4 115.2 108.8h537.6c64 0 115.2-57.6 115.2-128V172.8c0-19.2-19.2-32-32-32zM262.4 64H672c12.8 0 32 19.2 32 64v576H256c-25.6 0-64 19.2-64 32V128c0-32 38.4-64 70.4-64z" fill="" p-id="2352"></path><path d="M755.2 832H268.8c-12.8 0-25.6 12.8-25.6 32s12.8 32 25.6 32h480c12.8 0 25.6-12.8 25.6-32s-6.4-32-19.2-32z" fill="" p-id="2353"></path></svg>