<?xml version="1.0" standalone="no"?><!DOCTYPE svg PUBLIC "-//W3C//DTD SVG 1.1//EN" "http://www.w3.org/Graphics/SVG/1.1/DTD/svg11.dtd"><svg t="1667203237878" class="icon" viewBox="0 0 1024 1024" version="1.1" xmlns="http://www.w3.org/2000/svg" p-id="1436" xmlns:xlink="http://www.w3.org/1999/xlink" width="200" height="200"><path d="M694.445 406.059H547.641V260.478c0-19.489-15.991-35.346-35.641-35.346-19.654 0-35.641 15.858-35.641 35.346v145.581H329.552c-19.651 0-35.641 15.858-35.641 35.344 0 19.489 15.991 35.346 35.641 35.346h146.807v145.584c0 19.486 15.988 35.344 35.641 35.344 19.651 0 35.641-15.858 35.641-35.344V476.749h146.804c19.654 0 35.641-15.858 35.641-35.346 0.001-19.487-15.987-35.344-35.641-35.344z" p-id="1437"></path><path d="M744.143 63.944H279.857c-111.142 0-201.567 89.578-201.567 199.679v365.165c0 110.101 90.309 199.679 201.31 199.679h85.221l98.702 114.808c1.891 2.2 3.995 4.085 6.201 5.771 0.361 0.376 0.636 0.812 1.015 1.174 6.676 6.34 15.436 9.836 24.681 9.836 9.801 0 18.931-3.886 25.699-10.868l116.82-120.72h106.25c111.119 0 201.521-89.578 201.521-199.679V263.623c0-110.101-90.425-199.679-201.567-199.679z m130.281 564.845c0 71.104-58.42 128.969-130.235 128.969H622.758c-9.662 0-19.026 3.975-25.725 10.87l-101.602 104.99-107.667-116.835-61.115 0.974H279.6c-71.696 0-130.027-57.865-130.027-128.969V263.623c0-71.101 58.443-128.966 130.284-128.966h464.286c71.838 0 130.281 57.865 130.281 128.966v365.166z" p-id="1438"></path></svg>