<?xml version="1.0" standalone="no"?><!DOCTYPE svg PUBLIC "-//W3C//DTD SVG 1.1//EN" "http://www.w3.org/Graphics/SVG/1.1/DTD/svg11.dtd"><svg t="1665476289237" class="icon" viewBox="0 0 1024 1024" version="1.1" xmlns="http://www.w3.org/2000/svg" p-id="2492" xmlns:xlink="http://www.w3.org/1999/xlink" width="200" height="200"><path d="M447.47 691.78c-6.63 0-13.3-2.23-18.8-6.81l-128.9-107.42c-12.47-10.39-14.15-28.93-3.76-41.41 10.39-12.45 28.91-14.16 41.41-3.76l128.9 107.42c12.47 10.39 14.15 28.93 3.76 41.41-5.82 6.97-14.18 10.57-22.61 10.57z" p-id="2493"></path><path d="M447.79 691.67c-7.52 0-15.04-2.87-20.77-8.6-11.49-11.47-11.49-30.09-0.02-41.57l257.5-257.69c11.48-11.5 30.11-11.48 41.57-0.02 11.49 11.47 11.49 30.09 0.02 41.57l-257.5 257.69a29.326 29.326 0 0 1-20.8 8.62z" p-id="2494"></path><path d="M512 927.87C282.51 927.87 95.8 741.31 95.8 512S282.51 96.13 512 96.13 928.2 282.69 928.2 512 741.49 927.87 512 927.87z m0-772.95c-197.07 0-357.4 160.18-357.4 357.08S314.93 869.08 512 869.08 869.4 708.9 869.4 512 709.07 154.92 512 154.92z" p-id="2495"></path></svg>