<?xml version="1.0" standalone="no"?><!DOCTYPE svg PUBLIC "-//W3C//DTD SVG 1.1//EN" "http://www.w3.org/Graphics/SVG/1.1/DTD/svg11.dtd"><svg t="1665476278156" class="icon" viewBox="0 0 1025 1024" version="1.1" xmlns="http://www.w3.org/2000/svg" p-id="1925" xmlns:xlink="http://www.w3.org/1999/xlink" width="200.1953125" height="200"><path d="M512 1024c-137.309091 0-265.309091-53.527273-363.054545-148.945455C53.527273 777.309091 0 649.309091 0 512S53.527273 246.690909 148.945455 148.945455C246.690909 53.527273 374.690909 0 512 0s265.309091 53.527273 363.054545 148.945455c200.145455 200.145455 200.145455 523.636364 0 723.781818C777.309091 970.472727 649.309091 1024 512 1024m0-956.509091c-118.690909 0-230.4 46.545455-314.181818 130.327273-83.781818 83.781818-130.327273 195.490909-130.327273 314.181818s46.545455 230.4 130.327273 314.181818c83.781818 83.781818 195.490909 130.327273 314.181818 130.327273s230.4-46.545455 314.181818-130.327273C1000.727273 651.636364 1000.727273 370.036364 826.181818 195.490909 742.4 114.036364 630.690909 67.490909 512 67.490909M330.472727 651.636364s60.509091 95.418182 181.527273 95.418181c121.018182 0 202.472727-95.418182 202.472727-95.418181s44.218182 0 44.218182 48.872727c0 0-79.127273 111.709091-246.690909 111.709091-167.563636 0-223.418182-111.709091-223.418182-111.709091s-2.327273-48.872727 41.890909-48.872727m32.581818-304.872728c-34.909091 0-62.836364 27.927273-62.836363 62.836364 0 34.909091 27.927273 62.836364 62.836363 62.836364 34.909091 0 62.836364-27.927273 62.836364-62.836364 0-34.909091-27.927273-62.836364-62.836364-62.836364m321.163637 0c-34.909091 0-62.836364 27.927273-62.836364 62.836364 0 34.909091 27.927273 62.836364 62.836364 62.836364 34.909091 0 62.836364-27.927273 62.836363-62.836364 0-34.909091-27.927273-62.836364-62.836363-62.836364m0 0z" p-id="1926"></path></svg>