<?xml version="1.0" standalone="no"?><!DOCTYPE svg PUBLIC "-//W3C//DTD SVG 1.1//EN" "http://www.w3.org/Graphics/SVG/1.1/DTD/svg11.dtd"><svg t="1665476291654" class="icon" viewBox="0 0 1024 1024" version="1.1" xmlns="http://www.w3.org/2000/svg" p-id="2634" xmlns:xlink="http://www.w3.org/1999/xlink" width="200" height="200"><path d="M405.333333 138.666667c147.285333 0 266.666667 119.381333 266.666667 266.666666 0 97.834667-52.693333 183.36-131.2 229.76 105.664 44.053333 186.133333 138.346667 209.621333 255.210667a32 32 0 1 1-62.72 12.586667c-26.389333-131.157333-140.672-227.626667-275.498666-230.826667l-6.314667-0.085333L405.333333 672h-0.853333c-137.386667 0.384-254.698667 97.749333-281.472 230.826667a32 32 0 0 1-62.741333-12.608c23.488-116.821333 103.978667-211.072 209.621333-255.146667A266.453333 266.453333 0 0 1 138.666667 405.333333c0-147.285333 119.381333-266.666667 266.666666-266.666666z m256-42.666667c135.488 0 245.333333 109.845333 245.333334 245.333333 0 79.786667-38.442667 152.128-99.456 197.312l-2.389334 1.706667C904.725333 591.893333 970.666667 693.76 970.666667 810.666667a32 32 0 0 1-64 0c0-113.045333-78.08-208.298667-188.757334-234.730667a32 32 0 0 1-0.704-62.08l-1.237333 0.426667A181.418667 181.418667 0 0 0 842.666667 341.333333a181.333333 181.333333 0 0 0-216.853334-177.856 32 32 0 0 1-12.437333-62.784c15.68-3.114667 31.722667-4.693333 47.957333-4.693333z m-256 106.666667a202.666667 202.666667 0 0 0 0 405.333333l-0.810666-0.021333 0.810666 0.021333h0.810667A202.666667 202.666667 0 0 0 405.333333 202.666667z" fill="#4E4E4E" p-id="2635"></path></svg>