<?xml version="1.0" standalone="no"?><!DOCTYPE svg PUBLIC "-//W3C//DTD SVG 1.1//EN" "http://www.w3.org/Graphics/SVG/1.1/DTD/svg11.dtd"><svg t="1665708253735" class="icon" viewBox="0 0 1092 1024" version="1.1" xmlns="http://www.w3.org/2000/svg" p-id="1506" xmlns:xlink="http://www.w3.org/1999/xlink" width="213.28125" height="200"><path d="M587.093333 539.306667c75.093333-47.786667 129.706667-136.533333 129.706667-232.106667 0-150.186667-122.88-273.066667-273.066667-273.066667s-273.066667 122.88-273.066666 273.066667c0 95.573333 47.786667 184.32 129.706666 232.106667C122.88 600.746667 0 764.586667 0 955.733333c0 20.48 13.653333 34.133333 34.133333 34.133334s34.133333-13.653333 34.133334-34.133334c0-204.8 170.666667-375.466667 375.466666-375.466666S819.2 750.933333 819.2 955.733333c0 20.48 13.653333 34.133333 34.133333 34.133334s34.133333-13.653333 34.133334-34.133334c0-191.146667-122.88-354.986667-300.373334-416.426666z m-143.36-27.306667c-116.053333 0-204.8-88.746667-204.8-204.8s88.746667-204.8 204.8-204.8 204.8 88.746667 204.8 204.8-88.746667 204.8-204.8 204.8z" p-id="1507"></path><path d="M873.813333 471.04c47.786667-40.96 81.92-95.573333 81.92-163.84 0-116.053333-88.746667-204.8-204.8-204.8-20.48 0-34.133333 13.653333-34.133333 34.133333s13.653333 34.133333 34.133333 34.133334c75.093333 0 136.533333 61.44 136.533334 136.533333s-61.44 136.533333-136.533334 136.533333c-20.48 0-34.133333 13.653333-34.133333 34.133334s13.653333 34.133333 34.133333 34.133333c129.706667 0 238.933333 109.226667 238.933334 238.933333 0 20.48 13.653333 34.133333 34.133333 34.133334s34.133333-13.653333 34.133333-34.133334c0-122.88-75.093333-232.106667-184.32-279.893333z" p-id="1508"></path></svg>