<?xml version="1.0" standalone="no"?><!DOCTYPE svg PUBLIC "-//W3C//DTD SVG 1.1//EN" "http://www.w3.org/Graphics/SVG/1.1/DTD/svg11.dtd"><svg t="1665476298087" class="icon" viewBox="0 0 1024 1024" version="1.1" xmlns="http://www.w3.org/2000/svg" p-id="3054" xmlns:xlink="http://www.w3.org/1999/xlink" width="200" height="200"><path d="M544.2 957c-7 0-14 0-21.2-0.4C291.2 946.2 97.6 759.6 81.4 532c-14-195.4 99-378 281-454.4 51.8-21.6 79-5 90.6 7 11.6 11.6 27.8 38.4 6.2 87.8-19 43.8-28.6 90.6-28.2 138.6 0.8 183.4 153.2 339 339 346.4 27 1.2 53.4-0.8 79-5.4 54.6-10 77.4 12 86 26 8.6 14 18.6 44.2-14.4 89-87.6 120-227 190-376.4 190zM143 527.4c14 197 182.2 358.4 382.4 367.2 136.2 6.6 265.4-55.4 344.8-164 6.2-8.6 9.2-15 10.4-18.2-3.8-0.4-10.4-0.8-20.6 1.2-30.2 5.4-61.6 7.4-92.8 6.2-218.6-8.6-397.4-192-398.6-408.2 0-57.2 11.2-112.2 34-164 4.2-9.2 5-15.4 5.4-18.6-3.8 0-10.4 0.8-21.2 5.4-157.6 66.4-255.4 224.4-243.8 393z" p-id="3055"></path></svg>