<?xml version="1.0" standalone="no"?><!DOCTYPE svg PUBLIC "-//W3C//DTD SVG 1.1//EN" "http://www.w3.org/Graphics/SVG/1.1/DTD/svg11.dtd"><svg t="1665838641231" class="icon" viewBox="0 0 1024 1024" version="1.1" xmlns="http://www.w3.org/2000/svg" p-id="1475" xmlns:xlink="http://www.w3.org/1999/xlink" width="200" height="200"><path d="M659.718 892.26H364.286c-17.448 0-31.603 14.14-31.603 31.587 0 17.446 14.156 31.586 31.603 31.586h295.432c17.447 0 31.603-14.139 31.603-31.586s-14.156-31.586-31.603-31.586zM870.281 735.268l-58.05-102.012c-16.684-40.295-71.605-33.411-65.107 5.143 0.527 1.356 0.927 2.764 1.646 4.03l71.295 125.453c0.72 1.234 1.509 2.417 2.263 3.342H200.785l73.147-128.76c2.57-4.474 3.908-9.58 3.908-14.808V444.978c0-87.852 68.279-178.943 159.387-212.071 22.52-7.284 39.35-10.507 49.495-11.93 11.551-1.593 33.489-2.021 48.811 0.035 14.91 2.04 32.494 6.324 53.3 13.128 88.95 33.728 156.03 124.356 156.03 210.837v98.359c1.547 28.015 55.228 30.905 59.778 0v-98.358c0-53.386-19.297-109.583-54.363-158.206-29.524-40.864-69.201-73.719-113.947-96.09-1.358-67.536-56.503-122.115-124.346-122.115-67.558 0-122.46 54.14-124.262 121.286-44.394 21.856-84.388 54.563-114.236 95.497-35.75 48.999-55.426 105.676-55.426 159.628v174.795l-70.815 124.613c-10.215 17.824-10.147 39.983 0.17 57.807 10.284 17.773 29.479 28.81 50.113 28.81h628.878c31.945 0 57.962-25.964 57.962-57.876 0-14.019-5.005-27.421-14.088-37.859zM511.985 124.712c29.59 0 54.618 18.99 64.15 45.332-40.433-7.984-87.045-8.224-128.154-0.472 9.662-26.101 34.588-44.86 64.004-44.86z" p-id="1476"></path></svg>